<?xml version="1.0" encoding="utf-8"?>
<!-- Generator: Adobe Illustrator 25.3.1, SVG Export Plug-In . SVG Version: 6.00 Build 0)  -->
<svg version="1.1" id="Capa_1" xmlns="http://www.w3.org/2000/svg" xmlns:xlink="http://www.w3.org/1999/xlink" x="0px" y="0px"
	 viewBox="0 0 800 800" style="enable-background:new 0 0 800 800;" xml:space="preserve">
<style type="text/css">
	.st0{fill:#91BAFF;}
	.st1{fill:#746DFD;}
	.st2{fill:#2E7BFF;}
	.st3{fill:#656565;}
	.st4{fill:#54504C;}
</style>
<path class="st0" d="M630.1,322.8L498.7,191.4c-3.7,6.8-5.5,14.3-5.4,21.8l131.4,131.4C624.7,337.1,626.5,329.6,630.1,322.8z"/>
<path class="st0" d="M669.6,299.8L538.2,168.3c-7.5-0.1-15,1.7-21.8,5.4l131.4,131.4C654.6,301.4,662.1,299.6,669.6,299.8z"/>
<path class="st0" d="M344.6,624.8L213.2,493.3c-7.5-0.1-15,1.7-21.8,5.4l131.4,131.4C329.6,626.5,337.1,624.7,344.6,624.8z"/>
<path class="st0" d="M305.1,647.8L173.7,516.4c-3.7,6.8-5.5,14.3-5.4,21.8l131.4,131.4C299.7,662.1,301.4,654.6,305.1,647.8z"/>
<path class="st0" d="M358.9,466.2l230.2,230.2c-4.4-16.7-6.3-33.7-4.6-49.4l-13.2-13.2c-2.4,2.4-5.6,3.7-8.8,3.7s-6.4-1.2-8.8-3.7
	L360.9,441.1l-14.1,14.1c-2.5,2.5-3.5,5.9-3.1,9.2C348.5,461.5,354.8,462.1,358.9,466.2z"/>
<path class="st0" d="M633.9,571.4l13.2,13.2c15.7-1.7,32.7,0.2,49.4,4.6L466.2,358.9c-4.1-4.1-4.7-10.4-1.9-15.2
	c-3.3-0.4-6.7,0.6-9.2,3.1L441,360.9l192.8,192.8C638.8,558.6,638.8,566.5,633.9,571.4z"/>
<path class="st0" d="M541.7,524.1c6.8-3.7,14.3-5.5,21.8-5.4L341.2,296.3c-4.9-4.9-4.9-12.8,0-17.7l0,0l-19.8-19.8l0,0
	c-2.4,2.4-5.6,3.7-8.8,3.7c-3.2,0-6.4-1.2-8.8-3.7L282,237c-7.5-0.1-15,1.7-21.8,5.4L541.7,524.1z"/>
<path class="st0" d="M518.7,563.5c-0.1-7.5,1.7-15,5.4-21.8L242.5,260.1c-3.7,6.8-5.5,14.3-5.4,21.8L518.7,563.5z"/>
<path class="st1" d="M91.2,108.8c2.4,2.4,5.6,3.7,8.8,3.7c3.2,0,6.4-1.2,8.8-3.7c4.9-4.9,4.9-12.8,0-17.7L21.3,3.7
	c-4.9-4.9-12.8-4.9-17.7,0s-4.9,12.8,0,17.7L91.2,108.8z"/>
<path class="st2" d="M524.1,541.7l42.1,42.1c2.4,2.4,5.6,3.7,8.8,3.7s6.4-1.2,8.8-3.7c4.9-4.9,4.9-12.8,0-17.7L541.7,524
	L260.1,242.5L146.3,128.6c-4.9-4.9-12.8-4.9-17.7,0c-4.9,4.9-4.9,12.8,0,17.7l113.8,113.8L524.1,541.7z"/>
<path class="st1" d="M312.5,262.5c3.2,0,6.4-1.2,8.8-3.7l0,0c4.9-4.9,4.9-12.8,0-17.7l-25-25c-4.9-4.9-12.8-4.9-17.7,0
	c-4.9,4.9-4.9,12.8,0,17.7l3.2,3.2l21.8,21.8C306.1,261.3,309.3,262.5,312.5,262.5z"/>
<path class="st2" d="M341.2,296.3l222.3,222.3l52.7,52.7c2.4,2.4,5.6,3.7,8.8,3.7s6.4-1.2,8.8-3.7c4.9-4.9,4.9-12.8,0-17.7
	L441.1,360.9l-82.2-82.2c-4.9-4.9-12.8-4.9-17.7,0l0,0C336.3,283.5,336.3,291.5,341.2,296.3z"/>
<path class="st1" d="M428.7,321.4c2.4,2.4,5.6,3.7,8.8,3.7c3.2,0,6.4-1.2,8.8-3.7c4.9-4.9,4.9-12.8,0-17.7l-12.5-12.5
	c-4.9-4.9-12.8-4.9-17.7,0c-4.9,4.9-4.9,12.8,0,17.7L428.7,321.4z"/>
<path class="st2" d="M466.2,358.9l230.2,230.2c29.1,7.6,57,22.9,74.3,40.2c1.2,1.2,2.3,2.4,3.4,3.6c-0.6-1.5-1.5-3-2.8-4.2
	L483.9,341.2c-4.9-4.9-12.8-4.9-17.7,0c-0.8,0.8-1.4,1.6-1.9,2.5C461.5,348.5,462.1,354.8,466.2,358.9z"/>
<path class="st1" d="M312.5,450c3.2,0,6.4-1.2,8.8-3.7c4.9-4.9,4.9-12.8,0-17.7l-12.5-12.5c-4.9-4.9-12.8-4.9-17.7,0
	c-4.9,4.9-4.9,12.8,0,17.7l12.5,12.5C306.1,448.8,309.3,450,312.5,450z"/>
<path class="st2" d="M629.3,770.8c-17.3-17.3-32.5-45.2-40.2-74.3L358.9,466.2c-4.1-4.1-10.4-4.7-15.2-1.9c-0.9,0.5-1.7,1.2-2.5,1.9
	c-4.9,4.9-4.9,12.8,0,17.7l287.5,287.5c1.2,1.2,2.7,2.2,4.2,2.8c-0.2-0.2-0.5-0.5-0.7-0.7C631.2,772.6,630.3,771.7,629.3,770.8z"/>
<path class="st1" d="M133.8,178.7c-4.9-4.9-12.8-4.9-17.7,0c-4.9,4.9-4.9,12.8,0,17.7l25,25c2.4,2.4,5.6,3.7,8.8,3.7
	s6.4-1.2,8.8-3.7c4.9-4.9,4.9-12.8,0-17.7L133.8,178.7z"/>
<path class="st2" d="M562.5,637.5c3.2,0,6.4-1.2,8.8-3.7c4.9-4.9,4.9-12.8,0-17.7l-52.7-52.7L237.1,281.9l-40.7-40.7
	c-4.9-4.9-12.8-4.9-17.7,0s-4.9,12.8,0,17.7l182.2,182.2l192.8,192.8C556.1,636.3,559.3,637.5,562.5,637.5z"/>
<path class="st1" d="M385,77.6c2.4,2.4,5.6,3.7,8.8,3.7s6.4-1.2,8.8-3.7c4.9-4.9,4.9-12.8,0-17.7L346.4,3.7
	c-4.9-4.9-12.8-4.9-17.7,0c-4.9,4.9-4.9,12.8,0,17.7L385,77.6z"/>
<path class="st2" d="M498.7,191.4l131.4,131.4l17.3,17.3c2.4,2.4,5.6,3.7,8.8,3.7s6.4-1.2,8.8-3.7c4.9-4.9,4.9-12.8,0-17.7
	l-17.3-17.3L516.4,173.7l-76.3-76.3c-4.9-4.9-12.8-4.9-17.7,0c-4.9,4.9-4.9,12.8,0,17.7L498.7,191.4z"/>
<path class="st1" d="M484.9,115.1c2.4,2.4,5.6,3.7,8.8,3.7c3.2,0,6.4-1.2,8.8-3.7c4.9-4.9,4.9-12.8,0-17.7L440,34.9
	c-4.9-4.9-12.8-4.9-17.7,0s-4.9,12.8,0,17.7L484.9,115.1z"/>
<path class="st2" d="M716.5,346.7c22-0.1,47.2,11.9,61.1,25.8L540.1,134.9c-4.9-4.9-12.8-4.9-17.7,0s-4.9,12.8,0,17.7l15.7,15.7
	l131.4,131.4L716.5,346.7z"/>
<path class="st1" d="M431.3,181.3c3.2,0,6.4-1.2,8.8-3.7c4.9-4.9,4.9-12.8,0-17.7l-56.3-56.3c-4.9-4.9-12.8-4.9-17.7,0
	c-4.9,4.9-4.9,12.8,0,17.7l56.3,56.3C424.9,180,428.1,181.3,431.3,181.3z"/>
<path class="st2" d="M675.4,395.3l-50.7-50.7L493.4,213.2l-15.8-15.8c-4.9-4.9-12.8-4.9-17.7,0c-4.9,4.9-4.9,12.8,0,17.7
	l231.3,231.3c0.7,0.7,1.5,1.3,2.4,1.9C683.6,435.5,676.1,414.7,675.4,395.3z"/>
<path class="st1" d="M68.8,406.3c3.2,0,6.4-1.2,8.8-3.7c4.9-4.9,4.9-12.8,0-17.7l-56.3-56.3c-4.9-4.9-12.8-4.9-17.7,0
	s-4.9,12.8,0,17.7l56.3,56.3C62.4,405.1,65.6,406.3,68.8,406.3z"/>
<path class="st2" d="M322.4,665.1c2.4,2.4,5.6,3.7,8.8,3.7s6.4-1.2,8.8-3.7c4.9-4.9,4.9-12.8,0-17.7l-17.3-17.3L191.4,498.7
	l-76.3-76.3c-4.9-4.9-12.8-4.9-17.7,0c-4.9,4.9-4.9,12.8,0,17.7l76.3,76.3l131.4,131.4L322.4,665.1z"/>
<path class="st1" d="M97.4,359.9c-4.9,4.9-4.9,12.8,0,17.7l62.5,62.5c2.4,2.4,5.6,3.7,8.8,3.7s6.4-1.2,8.8-3.7
	c4.9-4.9,4.9-12.8,0-17.7L115,359.9C110.2,355.1,102.3,355.1,97.4,359.9z"/>
<path class="st2" d="M391.5,671.7c22-0.1,47.2,11.9,61.1,25.8l0,0l0,0L215.1,460c-4.9-4.9-12.8-4.9-17.7,0s-4.9,12.8,0,17.7
	l15.7,15.7l131.4,131.4L391.5,671.7z"/>
<path class="st1" d="M58.8,428.7c-4.9-4.9-12.8-4.9-17.7,0s-4.9,12.8,0,17.7l56.3,56.3c2.4,2.4,5.6,3.7,8.8,3.7
	c3.2,0,6.4-1.2,8.8-3.7c4.9-4.9,4.9-12.8,0-17.7L58.8,428.7z"/>
<path class="st2" d="M350.4,720.3l-50.7-50.7L168.3,538.2l-15.8-15.8c-4.9-4.9-12.8-4.9-17.7,0s-4.9,12.8,0,17.7l231.3,231.3
	c0.7,0.7,1.5,1.3,2.4,1.9C358.6,760.5,351.1,739.7,350.4,720.3z"/>
<path class="st3" d="M774.2,632.9c-1.1-1.2-2.2-2.4-3.4-3.6c4.5,4.5,8.5,9.4,11.9,14.5c-15.1-10.9-32.7-17.2-50.6-18.5
	c-25.5-1.9-51.7,6.1-72.5,24.3c-37.9,33.2-45.1,89.2-18.9,130.7c-2.9-2.2-5.8-4.4-8.5-6.9c0.2,0.2,0.5,0.5,0.7,0.7
	c19,17.2,43.1,25.8,67.2,25.8c25.6,0,51.2-9.7,70.7-29.2C808.6,732.9,809.7,672.1,774.2,632.9z"/>
<path class="st4" d="M696.5,589.1c-16.7-4.4-33.7-6.2-49.4-4.6c-16.8,1.8-32,7.8-43.4,19.1c-11.4,11.4-17.3,26.6-19.1,43.4
	c-1.7,15.7,0.2,32.7,4.6,49.4c7.6,29.1,22.9,57,40.2,74.3c0.9,0.9,1.9,1.8,2.8,2.7c2.7,2.5,5.6,4.8,8.5,6.9
	c-26.1-41.6-19-97.5,18.9-130.7c20.8-18.2,47-26.2,72.5-24.3c18,1.3,35.5,7.6,50.6,18.5c-3.5-5.1-7.4-10-11.9-14.5
	C753.5,612,725.5,596.8,696.5,589.1z"/>
<path class="st3" d="M777.8,384.7c-14.2-7.5-30.8-10.4-46-6.7c-30.3,7.5-47.4,39.7-36.5,69c0.7,1.9,1.6,3.9,2.5,5.9
	c-0.1-0.1-0.2-0.2-0.3-0.3c10.7,10.7,25.4,16,40.1,16c14.7,0,29.4-5.3,40.1-16c20.6-20.6,21.3-56.2,2.2-77.9
	c4.8,5.5,8.2,11.8,10.5,18.6C786.4,390.1,782.3,387.1,777.8,384.7z"/>
<path class="st3" d="M777.6,372.4c0.7,0.7,1.5,1.5,2.1,2.3C779.1,373.9,778.4,373.2,777.6,372.4z"/>
<path class="st4" d="M716.5,346.7c-11.2,0.1-21.5,3.2-29.2,10.8c-9.1,9.1-12.4,23-11.9,37.7c0.7,19.5,8.2,40.3,18.1,53
	c1.3,1.6,2.5,3.1,3.9,4.4c0.1,0.1,0.2,0.2,0.3,0.3c-0.9-2-1.8-3.9-2.5-5.9c-10.9-29.3,6.2-61.5,36.5-69c15.2-3.7,31.8-0.8,46,6.7
	c4.5,2.4,8.6,5.4,12.5,8.6c-2.3-6.8-5.7-13.1-10.5-18.6l0,0c-0.7-0.8-1.4-1.5-2.1-2.3C763.8,358.5,738.5,346.6,716.5,346.7z"/>
<path class="st3" d="M465.3,718.4c-3.9-3.3-8-6.3-12.5-8.6c-14.2-7.5-30.8-10.4-46-6.7c-30.3,7.5-47.4,39.7-36.5,69
	c0.7,1.9,1.6,3.9,2.5,5.9c-0.1-0.1-0.2-0.2-0.3-0.3c10.7,10.7,25.4,16,40.1,16s29.4-5.3,40.1-16c20.6-20.6,21.3-56.2,2.2-77.9
	C459.6,705.2,463,711.6,465.3,718.4z"/>
<path class="st3" d="M454.8,699.7c-0.7-0.8-1.4-1.5-2.1-2.3l0,0C453.4,698.2,454.1,699,454.8,699.7z"/>
<path class="st4" d="M370.3,772c-10.9-29.3,6.2-61.5,36.5-69c15.2-3.7,31.8-0.8,46,6.7c4.5,2.4,8.6,5.4,12.5,8.6
	c-2.3-6.8-5.7-13.1-10.5-18.6l0,0c-0.7-0.8-1.4-1.5-2.1-2.3c-13.9-13.9-39.1-25.9-61.1-25.8c-11.2,0.1-21.5,3.2-29.2,10.8
	c-9.1,9.1-12.4,23-11.9,37.7c0.7,19.5,8.2,40.3,18.1,53c1.3,1.6,2.5,3.1,3.9,4.4c0.1,0.1,0.2,0.2,0.3,0.3
	C371.8,775.9,371,774,370.3,772z"/>
</svg>
